<svg width="68" height="50" viewBox="0 0 68 50" fill="none" xmlns="http://www.w3.org/2000/svg">
<g clip-path="url(#clip0_935_263)">
<path d="M27.1823 0.190422C27.0943 0.293053 23.2677 3.98773 18.6786 8.43014C14.0896 12.8579 8.51828 18.2533 6.30441 20.3938C4.09053 22.5491 1.75937 24.7776 1.14359 25.3641C0.513149 25.9505 0 26.493 0 26.5663C0 26.6249 1.83268 26.6836 4.07587 26.6836H8.13708L11.6558 23.2821C13.5911 21.4201 16.0982 19.001 17.2272 17.9014C18.3561 16.8165 20.2327 14.9838 21.4057 13.8549C22.5786 12.7259 24.4112 10.9519 25.4669 9.91094L27.4022 8.03428L27.886 8.43014C28.1499 8.65006 30.0852 10.4974 32.1818 12.5207C34.2784 14.5439 36.9028 17.095 38.0464 18.18C39.1753 19.2649 41.0519 21.0829 42.2249 22.2265C43.3978 23.3555 44.9079 24.8069 45.5823 25.452L46.7992 26.6103L50.8898 26.6396C53.133 26.6543 54.9803 26.6103 54.9803 26.537C54.9803 26.4783 54.7017 26.1704 54.3645 25.8772C53.7781 25.3494 52.3559 23.9859 47.2831 19.0597C46.1541 17.9747 43.4857 15.3943 41.3452 13.3417C36.9174 9.07524 33.9998 6.26025 30.9356 3.28398C28.4138 0.820864 27.5195 -0.000175476 27.4168 -0.000175476C27.3729 0.0144863 27.2702 0.0877934 27.1823 0.190422Z" fill="#7D7CF3"/>
<path d="M34.469 0.0586777C34.4983 0.102661 35.4806 1.09964 36.6535 2.30187C38.8527 4.55973 40.011 5.76197 46.4767 12.4622C48.6172 14.6761 51.3149 17.4764 52.4879 18.6933C57.634 24.0154 58.9096 25.3203 59.5253 25.9654L60.1851 26.6398L64.1144 26.6545C66.3136 26.6691 68.029 26.6105 67.9996 26.5372C67.9703 26.4639 67.4278 25.8628 66.7827 25.1883C65.0674 23.385 58.2938 16.3622 56.0066 14.0017C54.907 12.8728 53.0303 10.9228 51.8281 9.67656C47.2391 4.94093 45.8902 3.53343 44.2042 1.78872L42.4595 3.05176e-05H38.4422C36.2137 3.05176e-05 34.4397 0.0293541 34.469 0.0586777Z" fill="#7D7CF3"/>
<path d="M9.82312 11.905V16.626L10.5269 15.9809C10.9081 15.6143 11.9637 14.6027 12.8727 13.7084L14.5148 12.0956V9.64715V7.18403H12.1689H9.82312V11.905Z" fill="#7D7CF3"/>
<path d="M12.1396 23.1505L9.82312 25.4083V37.4747V49.5557H32.475H55.1269V47.2098V44.864H34.8208H14.5148L14.4854 32.8856L14.4415 20.9073L12.1396 23.1505Z" fill="#7D7CF3"/>
<path d="M21.4643 27.549C21.435 27.5784 21.4056 28.7952 21.4056 30.2321V32.8418H24.118H26.8304L26.801 30.2027L26.7571 27.5637L24.1473 27.5197C22.7105 27.505 21.4936 27.5197 21.4643 27.549Z" fill="#7D7CF3"/>
<path d="M29.3668 27.5344L28.1499 27.5784V30.2027V32.8418H30.789H33.428V30.2027V27.5637L32.8122 27.549C32.4604 27.549 31.8153 27.5197 31.3754 27.5197C30.9356 27.505 30.0266 27.505 29.3668 27.5344Z" fill="#7D7CF3"/>
<path d="M21.435 36.8296L21.4789 39.5127H24.162L26.8304 39.5273V36.8443V34.1613H24.118H21.4056L21.435 36.8296Z" fill="#7D7CF3"/>
<path d="M28.1499 36.8443V39.5273L30.789 39.542L33.428 39.5566V36.8589V34.1612H30.789H28.1499V36.8443Z" fill="#7D7CF3"/>
</g>
<defs>
<clipPath id="clip0_935_263">
<rect width="68" height="49.5556" fill="white"/>
</clipPath>
</defs>
</svg>
