<svg width="32" height="32" viewBox="0 0 32 32" fill="none" xmlns="http://www.w3.org/2000/svg">
<path fill-rule="evenodd" clip-rule="evenodd" d="M4 27V14H6V27C6 27.2652 6.10536 27.5196 6.29289 27.7071C6.48043 27.8946 6.73478 28 7 28H25C25.2652 28 25.5196 27.8946 25.7071 27.7071C25.8946 27.5196 26 27.2652 26 27V14H28V27C28 27.7956 27.6839 28.5587 27.1213 29.1213C26.5587 29.6839 25.7956 30 25 30H7C6.20435 30 5.44129 29.6839 4.87868 29.1213C4.31607 28.5587 4 27.7956 4 27ZM26 5V12L22 8V5C22 4.73478 22.1054 4.48043 22.2929 4.29289C22.4804 4.10536 22.7348 4 23 4H25C25.2652 4 25.5196 4.10536 25.7071 4.29289C25.8946 4.48043 26 4.73478 26 5Z" fill="#7D7CF3"/>
<path fill-rule="evenodd" clip-rule="evenodd" d="M14.5858 3.00012C14.9609 2.62518 15.4695 2.41455 15.9998 2.41455C16.5301 2.41455 17.0387 2.62518 17.4138 3.00012L30.7078 16.2921C30.8956 16.4799 31.0011 16.7346 31.0011 17.0001C31.0011 17.2657 30.8956 17.5204 30.7078 17.7081C30.52 17.8959 30.2653 18.0014 29.9998 18.0014C29.7342 18.0014 29.4796 17.8959 29.2918 17.7081L15.9998 4.41412L2.7078 17.7081C2.52003 17.8959 2.26535 18.0014 1.9998 18.0014C1.73425 18.0014 1.47957 17.8959 1.2918 17.7081C1.10403 17.5204 0.998535 17.2657 0.998535 17.0001C0.998535 16.7346 1.10403 16.4799 1.2918 16.2921L14.5858 3.00012Z" fill="#7D7CF3"/>
</svg>
