<svg width="16" height="16" viewBox="0 0 16 16" fill="none" xmlns="http://www.w3.org/2000/svg">
<path d="M8 15C6.14348 15 4.36301 14.2625 3.05025 12.9497C1.7375 11.637 1 9.85652 1 8C1 6.14348 1.7375 4.36301 3.05025 3.05025C4.36301 1.7375 6.14348 1 8 1C9.85652 1 11.637 1.7375 12.9497 3.05025C14.2625 4.36301 15 6.14348 15 8C15 9.85652 14.2625 11.637 12.9497 12.9497C11.637 14.2625 9.85652 15 8 15ZM8 16C10.1217 16 12.1566 15.1571 13.6569 13.6569C15.1571 12.1566 16 10.1217 16 8C16 5.87827 15.1571 3.84344 13.6569 2.34315C12.1566 0.842855 10.1217 0 8 0C5.87827 0 3.84344 0.842855 2.34315 2.34315C0.842855 3.84344 0 5.87827 0 8C0 10.1217 0.842855 12.1566 2.34315 13.6569C3.84344 15.1571 5.87827 16 8 16Z" fill="#38A169"/>
<path fill-rule="evenodd" clip-rule="evenodd" d="M12.0319 5.22034C12.1018 5.29001 12.1572 5.37277 12.195 5.46389C12.2328 5.55501 12.2523 5.65269 12.2523 5.75134C12.2523 5.84999 12.2328 5.94767 12.195 6.03879C12.1572 6.12991 12.1018 6.21267 12.0319 6.28234L7.53195 10.7823C7.46228 10.8522 7.37952 10.9076 7.2884 10.9454C7.19728 10.9832 7.0996 11.0027 7.00095 11.0027C6.9023 11.0027 6.80461 10.9832 6.7135 10.9454C6.62238 10.9076 6.53962 10.8522 6.46995 10.7823L4.21995 8.53234C4.15022 8.46261 4.0949 8.37982 4.05716 8.28872C4.01942 8.19761 4 8.09996 4 8.00134C4 7.90272 4.01942 7.80507 4.05716 7.71396C4.0949 7.62286 4.15022 7.54007 4.21995 7.47034C4.36078 7.32951 4.55178 7.25039 4.75095 7.25039C4.84956 7.25039 4.94721 7.26982 5.03832 7.30756C5.12943 7.34529 5.21222 7.40061 5.28195 7.47034L7.00095 9.19084L10.9699 5.22034C11.0396 5.1505 11.1224 5.09508 11.2135 5.05727C11.3046 5.01946 11.4023 5 11.5009 5C11.5996 5 11.6973 5.01946 11.7884 5.05727C11.8795 5.09508 11.9623 5.1505 12.0319 5.22034Z" fill="#38A169"/>
</svg>
