<svg width="16" height="8" viewBox="0 0 16 8" fill="none" xmlns="http://www.w3.org/2000/svg">
<path fill-rule="evenodd" clip-rule="evenodd" d="M0.85175 0.292208C0.904002 0.239825 0.966074 0.198264 1.03441 0.169907C1.10275 0.141549 1.17601 0.126953 1.25 0.126953C1.32399 0.126953 1.39725 0.141549 1.46559 0.169907C1.53393 0.198264 1.596 0.239825 1.64825 0.292208L8 6.64508L14.3517 0.292208C14.404 0.239909 14.4661 0.198424 14.5345 0.17012C14.6028 0.141816 14.676 0.127248 14.75 0.127248C14.824 0.127248 14.8972 0.141816 14.9655 0.17012C15.0339 0.198424 15.096 0.239909 15.1482 0.292208C15.2005 0.344507 15.242 0.406595 15.2703 0.474927C15.2986 0.543259 15.3132 0.616497 15.3132 0.690458C15.3132 0.76442 15.2986 0.837658 15.2703 0.90599C15.242 0.974322 15.2005 1.03641 15.1482 1.08871L8.39825 7.83871C8.346 7.89109 8.28393 7.93265 8.21559 7.96101C8.14725 7.98937 8.07399 8.00396 8 8.00396C7.92601 8.00396 7.85275 7.98937 7.78441 7.96101C7.71607 7.93265 7.654 7.89109 7.60175 7.83871L0.85175 1.08871C0.799367 1.03646 0.757806 0.974385 0.729449 0.906046C0.701092 0.837708 0.686495 0.764447 0.686495 0.690458C0.686495 0.61647 0.701092 0.543209 0.729449 0.474871C0.757806 0.406532 0.799367 0.34446 0.85175 0.292208Z" fill="black"/>
</svg>
