<svg width="24" height="24" viewBox="0 0 24 24" fill="none" xmlns="http://www.w3.org/2000/svg">
<path fill-rule="evenodd" clip-rule="evenodd" d="M16.5 22.5C18.0913 22.5 19.6174 21.8679 20.7426 20.7426C21.8679 19.6174 22.5 18.0913 22.5 16.5C22.5 14.9087 21.8679 13.3826 20.7426 12.2574C19.6174 11.1321 18.0913 10.5 16.5 10.5C14.9087 10.5 13.3826 11.1321 12.2574 12.2574C11.1321 13.3826 10.5 14.9087 10.5 16.5C10.5 18.0913 11.1321 19.6174 12.2574 20.7426C13.3826 21.8679 14.9087 22.5 16.5 22.5ZM24 16.5C24 18.4891 23.2098 20.3968 21.8033 21.8033C20.3968 23.2098 18.4891 24 16.5 24C14.5109 24 12.6032 23.2098 11.1967 21.8033C9.79018 20.3968 9 18.4891 9 16.5C9 14.5109 9.79018 12.6032 11.1967 11.1967C12.6032 9.79018 14.5109 9 16.5 9C18.4891 9 20.3968 9.79018 21.8033 11.1967C23.2098 12.6032 24 14.5109 24 16.5Z" fill="#38A169"/>
<path d="M14.1568 17.916C14.2273 18.81 14.9338 19.506 16.2013 19.59V20.25H16.7638V19.5855C18.0763 19.494 18.8428 18.792 18.8428 17.775C18.8428 16.848 18.2578 16.371 17.2078 16.125L16.7638 16.02V14.22C17.3278 14.2845 17.6848 14.592 17.7703 15.018H18.7573C18.6868 14.1555 17.9473 13.482 16.7638 13.4085V12.75H16.2013V13.425C15.0808 13.5345 14.3188 14.208 14.3188 15.162C14.3188 16.005 14.8858 16.542 15.8293 16.761L16.2013 16.8525V18.7605C15.6253 18.6735 15.2428 18.3555 15.1573 17.916H14.1553H14.1568ZM16.1968 15.885C15.6433 15.7575 15.3433 15.495 15.3433 15.102C15.3433 14.661 15.6673 14.331 16.2013 14.235V15.885H16.1968ZM16.8448 17.004C17.5183 17.16 17.8273 17.412 17.8273 17.8575C17.8273 18.366 17.4418 18.714 16.7638 18.7785V16.986L16.8448 17.004Z" fill="#38A169"/>
<path d="M1.5 0C1.10218 0 0.720644 0.158035 0.43934 0.43934C0.158035 0.720644 0 1.10218 0 1.5L0 13.5C0 13.8978 0.158035 14.2794 0.43934 14.5607C0.720644 14.842 1.10218 15 1.5 15H7.6245C7.7115 14.484 7.842 13.983 8.0115 13.5H4.5C4.5 12.7044 4.18393 11.9413 3.62132 11.3787C3.05871 10.8161 2.29565 10.5 1.5 10.5V4.5C2.29565 4.5 3.05871 4.18393 3.62132 3.62132C4.18393 3.05871 4.5 2.29565 4.5 1.5H19.5C19.5 2.29565 19.8161 3.05871 20.3787 3.62132C20.9413 4.18393 21.7044 4.5 22.5 4.5V9.792C23.07 10.302 23.5755 10.884 24 11.523V1.5C24 1.10218 23.842 0.720644 23.5607 0.43934C23.2794 0.158035 22.8978 0 22.5 0L1.5 0Z" fill="#38A169"/>
<path d="M14.997 7.62455L15 7.50005C14.9997 6.98343 14.866 6.47565 14.6118 6.02589C14.3577 5.57612 13.9917 5.19961 13.5493 4.93282C13.1069 4.66604 12.6031 4.51801 12.0867 4.50308C11.5703 4.48816 11.0588 4.60684 10.6017 4.84763C10.1446 5.08842 9.75751 5.44316 9.47779 5.8775C9.19807 6.31183 9.03526 6.81104 9.00511 7.32677C8.97497 7.8425 9.07851 8.35728 9.30572 8.82125C9.53293 9.28521 9.8761 9.68264 10.302 9.97505C11.5976 8.74095 13.2326 7.9224 14.997 7.62455Z" fill="#38A169"/>
</svg>
