<svg width="26" height="26" viewBox="0 0 26 26" fill="none" xmlns="http://www.w3.org/2000/svg">
<path d="M25.5599 12.425L1.05164 0.0491994C0.952026 -0.000964763 0.837102 -0.012768 0.727528 0.0137895C0.47579 0.0757569 0.31573 0.329528 0.374054 0.5833L2.76846 10.9761C2.80457 11.1325 2.91784 11.2594 3.07058 11.3096L7.40789 12.8056L3.03049 14.3017C2.87627 14.3548 2.7594 14.4788 2.72173 14.6352L0.0222605 25.0427C-0.00587002 25.1519 0.00427942 25.267 0.0530482 25.3644C0.16479 25.5975 0.446741 25.6919 0.684487 25.5768L25.5477 13.2719C25.6398 13.2276 25.7147 13.1509 25.7632 13.0624C25.8817 12.8263 25.7913 12.543 25.5599 12.425ZM2.97461 22.086L4.54629 16.0191L13.301 13.0299C13.3693 13.0063 13.4261 12.9532 13.4507 12.8824C13.4938 12.7584 13.4308 12.6256 13.3075 12.5814L4.63868 9.59514L3.24708 3.55184L21.6466 12.844L2.97461 22.086Z" fill="#C5C6CD"/>
</svg>
