<svg width="22" height="24" viewBox="0 0 22 24" fill="none" xmlns="http://www.w3.org/2000/svg">
<path d="M11 23.9998C11.7956 23.9998 12.5587 23.6838 13.1213 23.1212C13.6839 22.5586 14 21.7955 14 20.9998H8C8 21.7955 8.31607 22.5586 8.87868 23.1212C9.44129 23.6838 10.2044 23.9998 11 23.9998ZM11 2.87685L9.8045 3.11835C8.44844 3.39465 7.2295 4.131 6.35398 5.20278C5.47846 6.27456 5.00015 7.61593 5 8.99985C5 9.94185 4.799 12.2953 4.3115 14.6128C4.0715 15.7633 3.7475 16.9618 3.317 17.9998H18.683C18.2525 16.9618 17.93 15.7648 17.6885 14.6128C17.201 12.2953 17 9.94185 17 8.99985C16.9995 7.61618 16.521 6.27517 15.6455 5.2037C14.7701 4.13223 13.5513 3.3961 12.1955 3.11985L11 2.87535V2.87685ZM20.33 17.9998C20.6645 18.6703 21.0515 19.2013 21.5 19.4998H0.5C0.9485 19.2013 1.3355 18.6703 1.67 17.9998C3.02 15.2998 3.5 10.3198 3.5 8.99985C3.5 5.36985 6.08 2.33985 9.5075 1.64835C9.48656 1.43978 9.50958 1.22914 9.57505 1.03001C9.64052 0.830878 9.74701 0.647682 9.88763 0.492235C10.0283 0.336787 10.1999 0.212539 10.3915 0.127504C10.5831 0.0424694 10.7904 -0.00146484 11 -0.00146484C11.2096 -0.00146484 11.4169 0.0424694 11.6085 0.127504C11.8001 0.212539 11.9717 0.336787 12.1124 0.492235C12.253 0.647682 12.3595 0.830878 12.4249 1.03001C12.4904 1.22914 12.5134 1.43978 12.4925 1.64835C14.1879 1.9932 15.7121 2.91339 16.8069 4.2531C17.9016 5.59281 18.4998 7.26971 18.5 8.99985C18.5 10.3198 18.98 15.2998 20.33 17.9998Z" fill="#7D7CF3"/>
</svg>
