<svg width="92" height="101" viewBox="0 0 92 101" fill="none" xmlns="http://www.w3.org/2000/svg">
<g clip-path="url(#clip0_566_1811)">
<g filter="url(#filter0_d_566_1811)">
<path d="M22.1754 13.7835C26.9283 13.7875 31.5547 12.2521 35.3622 9.40715L41.8566 4.55446C44.2822 2.85554 47.5118 2.85556 49.9374 4.55446L56.8504 9.56774C60.5826 12.2744 65.0708 13.7401 69.6811 13.7579L75.177 13.7791C80.6221 13.7791 85.0363 18.1932 85.0363 23.6384C85.0363 28.6053 87.2341 33.3176 91.0395 36.5097L91.2757 36.7078C91.7543 37.1092 92.0308 37.7018 92.0308 38.3264V94.1066C92.0308 97.996 88.8779 101.149 84.9885 101.149H7.04234C3.15324 101.149 0 97.996 0 94.1066L0.00343864 38.3263C0.00343864 37.7017 0.279905 37.1092 0.757877 36.7078L0.989391 36.5136C4.79578 33.3205 6.9942 28.6067 6.9942 23.6384C6.9942 18.1932 11.408 13.7791 16.8535 13.7791L22.1754 13.7835Z" fill="#FF0000" fill-opacity="0.01"/>
</g>
<mask id="mask0_566_1811" style="mask-type:alpha" maskUnits="userSpaceOnUse" x="0" y="0" width="93" height="102">
<path d="M28.0903 13.7792L41.9748 2.13161C44.4004 0.432682 47.63 0.432704 50.0556 2.13161L63.9412 13.7792H75.177C80.6221 13.7792 85.0363 18.1933 85.0363 23.6384V31.4741L91.2757 36.7078C91.7543 37.1092 92.0308 37.7019 92.0308 38.3265V94.1067C92.0308 97.996 88.8779 101.149 84.9885 101.149H7.04234C3.15324 101.149 0 97.996 0 94.1066L0.00343864 38.3263C0.00343864 37.7018 0.279905 37.1093 0.757877 36.7079L6.9942 31.4763V23.6384C6.9942 18.1933 11.408 13.7792 16.8535 13.7792H28.0903Z" fill="#EBE9FF"/>
</mask>
<g mask="url(#mask0_566_1811)">
<path d="M39.7259 5.09039L3.12748 34.8045C1.15116 36.4091 0.00345162 38.819 0.00330393 41.3647L0.000244141 94.1064C0.000244141 97.9958 3.15321 101.149 7.04259 101.149H84.9887C88.8781 101.149 92.0309 97.9958 92.0309 94.1064V41.3748C92.0309 38.8234 90.8782 36.4085 88.8943 34.804L52.1402 5.07866C48.5188 2.14979 43.3418 2.15467 39.7259 5.09039Z" fill="#BDB4FE"/>
<path d="M75.1774 13.7793C80.6225 13.7793 85.0366 18.1934 85.0366 23.6386L85.0366 99.7407C85.0366 100.519 84.406 101.149 83.6281 101.149L8.40297 101.149C7.6251 101.149 6.9945 100.519 6.9945 99.7407L6.99451 23.6386C6.99451 18.1934 11.4087 13.7793 16.8538 13.7793L75.1774 13.7793Z" fill="#FBFBFD"/>
<rect x="17.6238" y="47.6895" width="44.4953" height="6.42546" rx="3.21273" fill="#BDB4FE"/>
<rect x="17.6235" y="25.833" width="44.0601" height="6.42546" rx="3.21273" fill="#BDB4FE"/>
<rect x="17.6238" y="36.7617" width="33.4123" height="6.42546" rx="3.21273" fill="#BDB4FE"/>
<path d="M35.4431 69.0381L-0.420898 40.0957L-0.171946 98.2641L35.4431 69.0381Z" fill="#7D7CF3"/>
<path d="M56.7715 69.5478L93.1028 40.5137L92.5988 95.8375L56.7715 69.5478Z" fill="#7D7CF3"/>
<path d="M-15.2169 99.3891L38.0725 62.0639C42.9236 58.6661 49.382 58.6661 54.2331 62.0639L118.496 107.075C119.624 107.865 119.065 109.638 117.688 109.638L-11.9848 109.637C-17.4923 109.637 -19.7279 102.549 -15.2169 99.3891Z" fill="#5925DC"/>
</g>
</g>
<defs>
<filter id="filter0_d_566_1811" x="-29.0787" y="-13.8249" width="150.188" height="156.026" filterUnits="userSpaceOnUse" color-interpolation-filters="sRGB">
<feFlood flood-opacity="0" result="BackgroundImageFix"/>
<feColorMatrix in="SourceAlpha" type="matrix" values="0 0 0 0 0 0 0 0 0 0 0 0 0 0 0 0 0 0 127 0" result="hardAlpha"/>
<feOffset dy="11.9736"/>
<feGaussianBlur stdDeviation="14.5394"/>
<feColorMatrix type="matrix" values="0 0 0 0 0.290196 0 0 0 0 0.227451 0 0 0 0 1 0 0 0 0.15 0"/>
<feBlend mode="normal" in2="BackgroundImageFix" result="effect1_dropShadow_566_1811"/>
<feBlend mode="normal" in="SourceGraphic" in2="effect1_dropShadow_566_1811" result="shape"/>
</filter>
<clipPath id="clip0_566_1811">
<rect width="92" height="100" fill="white" transform="translate(0 0.857422)"/>
</clipPath>
</defs>
</svg>
