<svg width="24" height="24" viewBox="0 0 24 24" fill="none" xmlns="http://www.w3.org/2000/svg">
<path d="M13.473 2.34905C13.3246 2.0904 13.1105 1.8755 12.8524 1.72606C12.5942 1.57662 12.3013 1.49792 12.003 1.49792C11.7048 1.49792 11.4118 1.57662 11.1537 1.72606C10.8956 1.8755 10.6815 2.0904 10.533 2.34905L0.247541 19.8495C-0.437959 21.0165 0.384041 22.5 1.71754 22.5H22.287C23.6205 22.5 24.444 21.015 23.757 19.8495L13.473 2.34905ZM12 7.50005C12.8025 7.50005 13.431 8.19305 13.35 8.99255L12.825 14.253C12.8074 14.4597 12.7128 14.6522 12.5601 14.7925C12.4073 14.9328 12.2074 15.0106 12 15.0106C11.7926 15.0106 11.5928 14.9328 11.44 14.7925C11.2872 14.6522 11.1927 14.4597 11.175 14.253L10.65 8.99255C10.6312 8.8039 10.6521 8.61339 10.7113 8.4333C10.7706 8.25321 10.8669 8.08752 10.9941 7.94692C11.1212 7.80631 11.2765 7.69391 11.4497 7.61694C11.623 7.53998 11.8105 7.50016 12 7.50005ZM12.003 16.5C12.4009 16.5 12.7824 16.6581 13.0637 16.9394C13.345 17.2207 13.503 17.6022 13.503 18C13.503 18.3979 13.345 18.7794 13.0637 19.0607C12.7824 19.342 12.4009 19.5 12.003 19.5C11.6052 19.5 11.2237 19.342 10.9424 19.0607C10.6611 18.7794 10.503 18.3979 10.503 18C10.503 17.6022 10.6611 17.2207 10.9424 16.9394C11.2237 16.6581 11.6052 16.5 12.003 16.5Z" fill="#C20D0A"/>
</svg>
