<svg width="12" height="20" viewBox="0 0 12 20" fill="none" xmlns="http://www.w3.org/2000/svg">
<path fill-rule="evenodd" clip-rule="evenodd" d="M0.968997 0.469364C1.03867 0.399519 1.12143 0.344105 1.21255 0.306295C1.30366 0.268486 1.40135 0.249023 1.5 0.249023C1.59865 0.249023 1.69633 0.268486 1.78745 0.306295C1.87857 0.344105 1.96133 0.399519 2.031 0.469364L11.031 9.46936C11.1008 9.53903 11.1563 9.6218 11.1941 9.71291C11.2319 9.80403 11.2513 9.90171 11.2513 10.0004C11.2513 10.099 11.2319 10.1967 11.1941 10.2878C11.1563 10.3789 11.1008 10.4617 11.031 10.5314L2.031 19.5314C1.89017 19.6722 1.69916 19.7513 1.5 19.7513C1.30083 19.7513 1.10983 19.6722 0.968997 19.5314C0.828168 19.3905 0.74905 19.1995 0.74905 19.0004C0.74905 18.8012 0.828168 18.6102 0.968997 18.4694L9.4395 10.0004L0.968997 1.53136C0.899153 1.4617 0.843738 1.37893 0.805928 1.28781C0.768119 1.1967 0.748657 1.09902 0.748657 1.00036C0.748657 0.901713 0.768119 0.804031 0.805928 0.712914C0.843738 0.621796 0.899153 0.539033 0.968997 0.469364Z" fill="#5925DC"/>
</svg>
