<svg width="12" height="20" viewBox="0 0 12 20" fill="none" xmlns="http://www.w3.org/2000/svg">
<path fill-rule="evenodd" clip-rule="evenodd" d="M11.031 0.469364C11.1008 0.539033 11.1563 0.621796 11.1941 0.712914C11.2319 0.804031 11.2513 0.901713 11.2513 1.00036C11.2513 1.09902 11.2319 1.1967 11.1941 1.28781C11.1563 1.37893 11.1008 1.4617 11.031 1.53136L2.5605 10.0004L11.031 18.4694C11.1718 18.6102 11.2509 18.8012 11.2509 19.0004C11.2509 19.1995 11.1718 19.3905 11.031 19.5314C10.8902 19.6722 10.6992 19.7513 10.5 19.7513C10.3008 19.7513 10.1098 19.6722 9.969 19.5314L0.968997 10.5314C0.899153 10.4617 0.843738 10.3789 0.805928 10.2878C0.768119 10.1967 0.748657 10.099 0.748657 10.0004C0.748657 9.90171 0.768119 9.80403 0.805928 9.71291C0.843738 9.6218 0.899153 9.53903 0.968997 9.46936L9.969 0.469364C10.0387 0.399519 10.1214 0.344105 10.2125 0.306295C10.3037 0.268486 10.4013 0.249023 10.5 0.249023C10.5986 0.249023 10.6963 0.268486 10.7874 0.306295C10.8786 0.344105 10.9613 0.399519 11.031 0.469364Z" fill="#5925DC"/>
</svg>
